<?xml version="1.0" encoding="utf-8"?><!-- Generator: Adobe Illustrator 17.0.2, SVG Export Plug-In . SVG Version: 6.00 Build 0)  --><!DOCTYPE svg PUBLIC "-//W3C//DTD SVG 1.1//EN" "http://www.w3.org/Graphics/SVG/1.1/DTD/svg11.dtd"><svg xmlns="http://www.w3.org/2000/svg" xmlns:xlink="http://www.w3.org/1999/xlink" viewBox="0 0 50 50" width="50px" height="50px" fill-rule="evenodd" clip-rule="evenodd"><path fill-rule="evenodd" clip-rule="evenodd" fill="none" stroke="#000000" stroke-width="2" stroke-linecap="round" stroke-linejoin="round" stroke-miterlimit="10" d="M38,14C37.159,8.359,31.667,4,25,4S12.841,8.359,12,14H38z"/><line fill="none" stroke="#000000" stroke-width="2" stroke-linecap="round" stroke-linejoin="round" stroke-miterlimit="10" x1="30.719" y1="5.156" x2="33.523" y2="1"/><path fill-rule="evenodd" clip-rule="evenodd" d="M32,9.498C32,8.67,31.33,8,30.497,8C29.67,8,29,8.67,29,9.498C29,10.33,29.67,11,30.497,11C31.33,11,32,10.33,32,9.498z"/><line fill="none" stroke="#000000" stroke-width="2" stroke-linecap="round" stroke-linejoin="round" stroke-miterlimit="10" x1="19.281" y1="5.156" x2="16.477" y2="1"/><path fill-rule="evenodd" clip-rule="evenodd" d="M19.503,11C20.33,11,21,10.33,21,9.498C21,8.67,20.33,8,19.503,8C18.67,8,18,8.67,18,9.498C18,10.33,18.67,11,19.503,11z"/><path fill-rule="evenodd" clip-rule="evenodd" fill="none" stroke="#000000" stroke-width="2" stroke-linecap="round" stroke-linejoin="round" stroke-miterlimit="10" d="M12,14v23c0,1.104,0.896,2,2,2c0.241,0,21.759,0,22,0c1.104,0,2-0.896,2-2V14"/><path fill-rule="evenodd" clip-rule="evenodd" fill="none" stroke="#000000" stroke-width="2" stroke-linecap="round" stroke-linejoin="round" stroke-miterlimit="10" d="M41,16c-1.657,0-3,1.343-3,3c0,0.431,0,11.569,0,12c0,1.657,1.343,3,3,3s3-1.343,3-3c0-0.431,0-11.569,0-12C44,17.343,42.657,16,41,16z"/><path fill-rule="evenodd" clip-rule="evenodd" fill="none" stroke="#000000" stroke-width="2" stroke-linecap="round" stroke-linejoin="round" stroke-miterlimit="10" d="M9,16c-1.657,0-3,1.343-3,3c0,0.431,0,11.569,0,12c0,1.657,1.343,3,3,3s3-1.343,3-3c0-0.431,0-11.569,0-12C12,17.343,10.657,16,9,16z"/><path fill-rule="evenodd" clip-rule="evenodd" fill="none" stroke="#000000" stroke-width="2" stroke-linecap="round" stroke-linejoin="round" stroke-miterlimit="10" d="M16,39c0,0.549,0,6.451,0,7c0,1.657,1.343,3,3,3s3-1.343,3-3c0-0.549,0-6.451,0-7"/><path fill-rule="evenodd" clip-rule="evenodd" fill="none" stroke="#000000" stroke-width="2" stroke-linecap="round" stroke-linejoin="round" stroke-miterlimit="10" d="M28,39c0,0.549,0,6.451,0,7c0,1.657,1.343,3,3,3s3-1.343,3-3c0-0.549,0-6.451,0-7"/></svg>