<svg width="54" height="54" viewBox="0 0 54 54" fill="none" xmlns="http://www.w3.org/2000/svg">
<path d="M26.6032 2.37924C26.8487 2.23747 27.1513 2.23747 27.3968 2.37924L48.1238 14.346C48.3693 14.4877 48.5206 14.7497 48.5206 15.0333V38.9667C48.5206 39.2503 48.3693 39.5123 48.1238 39.654L27.3968 51.6208C27.1513 51.7625 26.8487 51.7625 26.6032 51.6208L5.87622 39.654C5.63065 39.5123 5.47938 39.2503 5.47938 38.9667V15.0333C5.47938 14.7497 5.63066 14.4877 5.87622 14.346L26.6032 2.37924Z" stroke="#326DA6" stroke-width="3.72414"/>
<path d="M22.7874 40.3266C22.4349 40.1856 22.0236 39.9858 21.5536 39.7273C21.0836 39.4923 20.6371 39.175 20.2141 38.7755C19.791 38.376 19.462 37.8942 19.227 37.3302C18.992 36.6487 18.8275 35.9789 18.7335 35.3209C18.663 34.6629 18.6395 33.8991 18.663 33.0296C18.663 31.8076 18.7453 30.7501 18.9098 29.857C19.0978 28.9405 19.3798 28.0122 19.7558 27.0722C19.8028 27.0017 19.885 26.802 20.0025 26.473C20.1435 26.1204 20.2963 25.7444 20.4608 25.3449C20.6488 24.9454 20.7898 24.6399 20.8838 24.4284C21.0718 24.0289 21.3538 23.5001 21.7298 22.8421C22.1293 22.1606 22.5524 21.5026 22.9989 20.8681C23.6804 19.8575 24.2562 19.035 24.7262 18.4005C25.1962 17.7425 25.6427 17.1902 26.0657 16.7437C26.5122 16.2972 26.994 15.8624 27.511 15.4394C28.0515 15.0164 28.7213 14.5347 29.5203 13.9941C30.0373 13.6181 30.6953 13.3831 31.4943 13.2891C32.3169 13.1951 33.1159 13.3244 33.8914 13.6769C34.6669 14.0059 35.2427 14.6404 35.6187 15.5804C35.8772 16.0739 35.9947 16.6967 35.9712 17.4487C35.9477 18.1772 35.8067 18.9645 35.5482 19.8105C35.2897 20.6331 34.9607 21.4086 34.5612 22.1371C34.1617 22.8656 33.7151 23.4531 33.2216 23.8996C32.9161 24.1816 32.5049 24.2287 31.9878 24.0406C31.4943 23.8526 31.0831 23.6059 30.7541 23.3004C30.5426 22.9009 30.4251 22.6659 30.4016 22.5954C30.4016 22.5249 30.4486 22.4779 30.5426 22.4544C30.6836 22.2899 30.8716 22.0078 31.1066 21.6083C31.3416 21.2088 31.5766 20.7858 31.8116 20.3393C32.0466 19.8693 32.2111 19.4933 32.3051 19.2113C32.4931 18.2242 32.6224 17.578 32.6929 17.2725C32.7634 16.9435 32.6929 16.6732 32.4814 16.4617C32.3874 16.3677 32.2464 16.3325 32.0584 16.356C31.8938 16.3795 31.6118 16.497 31.2123 16.7085C30.6718 16.9435 30.0255 17.4252 29.2735 18.1537C28.545 18.8588 27.8165 19.7048 27.088 20.6918C26.148 21.9373 25.3607 23.0419 24.7262 24.0054C24.0916 24.9689 23.6099 25.9559 23.2809 26.9665C23.2339 27.0605 23.1516 27.2367 23.0341 27.4952C22.9401 27.7537 22.8931 27.883 22.8931 27.883C22.9166 27.977 22.8814 28.212 22.7874 28.588C22.6934 28.9405 22.5876 29.246 22.4701 29.5045C22.2116 30.5856 22.0588 31.6313 22.0118 32.6419C21.9648 33.6289 22.0236 34.4984 22.1881 35.2504C22.3761 35.9789 22.6464 36.5195 22.9989 36.872C23.3044 37.0835 23.6921 37.154 24.1622 37.0835C24.6322 37.013 25.1727 36.8485 25.7837 36.59C26.3947 36.3315 27.0527 36.0495 27.7577 35.7439C28.3218 35.5089 28.8388 35.2504 29.3088 34.9684C29.7788 34.6864 30.1313 34.4397 30.3663 34.2282C30.5543 34.0872 30.7893 33.9461 31.0713 33.8051C31.3768 33.6406 31.6353 33.5584 31.8468 33.5584C32.1759 33.4409 32.4226 33.5349 32.5871 33.8404C32.7516 34.1459 32.8339 34.5337 32.8339 35.0037C32.8339 35.3327 32.5989 35.7322 32.1289 36.2022C31.6588 36.6722 31.1418 37.0717 30.5778 37.4007C30.3898 37.5887 30.1313 37.765 29.8023 37.9295C29.4968 38.0705 29.1795 38.1998 28.8505 38.3173C28.357 38.6933 27.746 39.0575 27.0175 39.41C26.289 39.7625 25.5487 40.0328 24.7967 40.2208C24.0681 40.4088 23.3984 40.4441 22.7874 40.3266Z" fill="#326DA6"/>
</svg>
