<svg xmlns="http://www.w3.org/2000/svg" xmlns:xlink="http://www.w3.org/1999/xlink" version="1.1" x="0px" y="0px" viewBox="0 0 24 30" style="enable-background:new 0 0 24 24;" xml:space="preserve"><g><path d="M17.002,2H7C4.243,2,2,4.243,2,6.999v10.003C2,19.758,4.243,22,7,22h10.002C19.758,22,22,19.758,22,17.002V6.999   C22,4.243,19.758,2,17.002,2z M11.34,17.274c0,0.552-0.447,1-1,1l-3.617,0.002h0c-0.265,0-0.52-0.105-0.707-0.292   c-0.188-0.188-0.293-0.442-0.293-0.708v-2.693c0-0.552,0.448-1,1-1s1,0.448,1,1v1.693l1.617-0.001V6.722c0-0.552,0.448-1,1-1   s1,0.448,1,1V17.274z M17.277,10.998c0.552,0,1,0.448,1,1v5.278c0,0.265-0.105,0.52-0.293,0.708   c-0.188,0.187-0.442,0.292-0.707,0.292h0l-3.645-0.002c-0.552,0-1-0.448-1-1s0.448-1,1-1h0l2.645,0.001v-3.278l-2.646-0.001   c-0.552,0-1-0.448-1-1V6.722c0-0.265,0.105-0.52,0.293-0.707s0.442-0.293,0.707-0.293h0l3.645,0.001c0.552,0,1,0.448,1,1   s-0.448,1-1,1c0,0,0,0,0,0l-2.645-0.001v3.274L17.277,10.998z"/></g><text x="0" y="39" fill="#000000" font-size="5px" font-weight="bold" font-family="'Helvetica Neue', Helvetica, Arial-Unicode, Arial, Sans-serif">Created by Silvia Natalia</text><text x="0" y="44" fill="#000000" font-size="5px" font-weight="bold" font-family="'Helvetica Neue', Helvetica, Arial-Unicode, Arial, Sans-serif">from the Noun Project</text></svg>