<svg xmlns="http://www.w3.org/2000/svg" xmlns:xlink="http://www.w3.org/1999/xlink" version="1.1" x="0px" y="0px" viewBox="0 0 64 80" style="enable-background:new 0 0 64 64;" xml:space="preserve"><g><path d="M62,32c0-4.8-4.9-8.3-11.9-10.5c1.6-7.1,1-13.1-3.1-15.5c-4.1-2.4-9.7,0.1-15,5c-5.3-4.9-10.9-7.4-15-5   c-4.1,2.4-4.7,8.4-3.1,15.5C6.9,23.7,2,27.2,2,32s4.9,8.3,11.9,10.5c-1.6,7.1-1,13.1,3.1,15.5c1.1,0.6,2.3,0.9,3.5,0.9   c3.5,0,7.6-2.3,11.5-6c3.9,3.6,8,6,11.5,6c1.2,0,2.4-0.3,3.5-0.9c4.1-2.4,4.7-8.4,3.1-15.5C57.1,40.3,62,36.8,62,32z M45,9.5   c2,1.2,2.5,5.3,1.3,11c-2.2-0.5-4.6-0.9-7-1.1c-1.4-2-2.9-3.8-4.5-5.5C39.1,10,43,8.3,45,9.5z M44.2,36.8c0.4,1,0.7,1.9,1,2.9   c-1,0.2-2,0.4-3,0.6c0.3-0.6,0.7-1.1,1-1.7C43.6,37.9,43.9,37.3,44.2,36.8z M39.8,36.5c-0.9,1.5-1.8,3-2.7,4.3   C35.4,40.9,33.8,41,32,41c-1.8,0-3.4-0.1-5.1-0.2c-0.9-1.4-1.8-2.8-2.7-4.3c-0.9-1.5-1.7-3-2.4-4.5c0.7-1.5,1.5-3,2.4-4.5   c0.9-1.5,1.8-3,2.7-4.3c1.6-0.1,3.3-0.2,5.1-0.2c1.8,0,3.4,0.1,5.1,0.2c0.9,1.4,1.8,2.8,2.7,4.3c0.9,1.5,1.7,3,2.4,4.5   C41.5,33.5,40.7,35,39.8,36.5z M32,47.3c-0.7-0.7-1.3-1.5-2-2.3c0.7,0,1.3,0,2,0c0.7,0,1.3,0,2,0C33.3,45.8,32.7,46.5,32,47.3z    M20.7,38.5c0.3,0.6,0.7,1.1,1,1.7c-1-0.2-2-0.4-3-0.6c0.3-0.9,0.6-1.9,1-2.9C20.1,37.3,20.4,37.9,20.7,38.5z M19.8,27.2   c-0.4-1-0.7-1.9-1-2.9c1-0.2,2-0.4,3-0.6c-0.3,0.6-0.7,1.1-1,1.7C20.4,26.1,20.1,26.7,19.8,27.2z M32,16.7c0.7,0.7,1.3,1.5,2,2.3   c-0.7,0-1.3,0-2,0c-0.7,0-1.3,0-2,0C30.7,18.2,31.3,17.5,32,16.7z M43.3,25.5c-0.3-0.6-0.7-1.1-1-1.7c1,0.2,2,0.4,3,0.6   c-0.3,0.9-0.6,1.9-1,2.9C43.9,26.7,43.6,26.1,43.3,25.5z M19,9.5c0.4-0.2,0.9-0.4,1.5-0.4c2.2,0,5.3,1.7,8.7,4.8   c-1.5,1.7-3,3.5-4.5,5.5c-2.4,0.3-4.8,0.6-7,1.1C16.5,14.8,17,10.7,19,9.5z M6,32c0-2.3,3.4-4.8,8.9-6.6c0.7,2.2,1.5,4.4,2.5,6.6   c-1,2.2-1.8,4.4-2.5,6.6C9.4,36.8,6,34.3,6,32z M19,54.5c-2-1.2-2.5-5.3-1.3-11c2.2,0.5,4.6,0.9,7,1.1c1.4,2,2.9,3.8,4.5,5.5   C24.9,54,21,55.7,19,54.5z M45,54.5c-2,1.2-5.9-0.5-10.2-4.4c1.5-1.7,3-3.5,4.5-5.5c2.4-0.3,4.8-0.6,7-1.1   C47.5,49.2,47,53.3,45,54.5z M49.1,38.6c-0.7-2.2-1.5-4.4-2.5-6.6c1-2.2,1.8-4.4,2.5-6.6c5.5,1.8,8.9,4.3,8.9,6.6   S54.6,36.8,49.1,38.6z"/><circle cx="32" cy="32" r="6"/></g><text x="0" y="79" fill="#000000" font-size="5px" font-weight="bold" font-family="'Helvetica Neue', Helvetica, Arial-Unicode, Arial, Sans-serif">Created by Mas Dhimas</text><text x="0" y="84" fill="#000000" font-size="5px" font-weight="bold" font-family="'Helvetica Neue', Helvetica, Arial-Unicode, Arial, Sans-serif">from the Noun Project</text></svg>