<svg xmlns="http://www.w3.org/2000/svg" data-name="Layer 1" viewBox="0 0 100 125" x="0px" y="0px"><title>a</title><path d="M53.832,28.046V41.194a1.33,1.33,0,0,0,1.331,1.33H69.515a1.329,1.329,0,0,0,1.33-1.33,4.25,4.25,0,1,1,8.5,0,1.33,1.33,0,0,0,1.331,1.33H95.026a1.33,1.33,0,0,0,1.331-1.33V6.049A6.056,6.056,0,0,0,90.308,0H55.163a1.331,1.331,0,0,0-1.331,1.331V14.476a6.91,6.91,0,0,0,0,13.57Zm1.3-11.033h.013a1.312,1.312,0,0,0,.951-.384,1.332,1.332,0,0,0,.4-.947V2.662H90.308A3.39,3.39,0,0,1,93.7,6.049V39.863H81.877a6.911,6.911,0,0,0-13.564,0H56.494V26.842a1.332,1.332,0,0,0-.4-.947,1.318,1.318,0,0,0-.951-.384h-.006a4.249,4.249,0,0,1-.007-8.5Zm34.282,55.17a3.584,3.584,0,0,0-5.044-.426L73.525,80.914,71.2,77.963a3.723,3.723,0,0,0-5.845,4.6l5.056,6.418a3.1,3.1,0,0,0,2.173,1.193,3.255,3.255,0,0,0,.34.018,3.1,3.1,0,0,0,2.028-.75l14.22-12A3.567,3.567,0,0,0,89.416,72.183Zm-1.961,3.226-14.22,12a.512.512,0,0,1-.733-.075L67.445,80.92c-.469-.595-.055-1.124.375-1.463a.918.918,0,0,1,1.289.153l3.177,4.032a1.329,1.329,0,0,0,1.9.193l11.9-10.044a.918.918,0,0,1,1.293.109C87.735,74.318,88.034,74.919,87.455,75.409ZM85.435,62.8V52.094A1.331,1.331,0,0,0,84.1,50.763H70.955a6.912,6.912,0,0,0-13.565,0H45.572V37.742a1.331,1.331,0,0,0-1.331-1.331,4.249,4.249,0,0,1,0-8.5,1.331,1.331,0,0,0,1.331-1.331V12.231A1.331,1.331,0,0,0,44.241,10.9H9.1a6.056,6.056,0,0,0-6.049,6.049V87.238A6.055,6.055,0,0,0,9.1,93.287H62.822A19.44,19.44,0,1,0,85.435,62.8ZM5.709,16.949A3.391,3.391,0,0,1,9.1,13.562H42.91V25.38a6.911,6.911,0,0,0,0,13.564V50.763H29.89a1.331,1.331,0,0,0-1.331,1.331,4.249,4.249,0,0,1-8.5,0,1.331,1.331,0,0,0-1.331-1.331H5.709Zm37.2,60.656V90.626H9.1a3.392,3.392,0,0,1-3.388-3.388V53.424H17.528a6.911,6.911,0,0,0,13.564,0H42.91V66.445a1.331,1.331,0,0,0,1.331,1.331,4.249,4.249,0,1,1,0,8.5A1.331,1.331,0,0,0,42.91,77.605Zm2.662,13.021V78.807a6.911,6.911,0,0,0,0-13.564V53.424H58.593a1.329,1.329,0,0,0,1.33-1.33,4.25,4.25,0,1,1,8.5,0,1.33,1.33,0,0,0,1.331,1.33h13.02v8.411A19.44,19.44,0,0,0,60.879,90.626Zm31.935,6.712A16.783,16.783,0,1,1,94.291,80.555,16.8,16.8,0,0,1,77.507,97.338Z"/><text x="0" y="115" fill="#000000" font-size="5px" font-weight="bold" font-family="'Helvetica Neue', Helvetica, Arial-Unicode, Arial, Sans-serif">Created by HAZHA</text><text x="0" y="120" fill="#000000" font-size="5px" font-weight="bold" font-family="'Helvetica Neue', Helvetica, Arial-Unicode, Arial, Sans-serif">from the Noun Project</text></svg>