<svg xmlns="http://www.w3.org/2000/svg" viewBox="0 0 100 125" x="0px" y="0px"><g><path d="M18.42,71.405a8.247,8.247,0,1,0,8.247-8.247A8.257,8.257,0,0,0,18.42,71.405Zm11.493,0a3.247,3.247,0,1,1-3.246-3.247A3.249,3.249,0,0,1,29.913,71.405Z"/><path d="M50.005,62.847a8.438,8.438,0,1,0,8.438,8.438A8.448,8.448,0,0,0,50.005,62.847Zm0,11.876a3.438,3.438,0,1,1,3.438-3.438A3.443,3.443,0,0,1,50.005,74.723Z"/><path d="M65.087,71.405a8.247,8.247,0,1,0,8.246-8.247A8.256,8.256,0,0,0,65.087,71.405Zm11.493,0a3.247,3.247,0,1,1-3.247-3.247A3.25,3.25,0,0,1,76.58,71.405Z"/><path d="M79.24,80.212H67.427a8.229,8.229,0,0,0-5.739,2.332,8.454,8.454,0,0,0-5.579-2.138H43.9a8.43,8.43,0,0,0-5.6,2.128,8.227,8.227,0,0,0-5.728-2.322H20.76a8.269,8.269,0,0,0-8.26,8.26v4a2.5,2.5,0,0,0,5,0v-4a3.264,3.264,0,0,1,3.26-3.26H32.573a3.264,3.264,0,0,1,3.26,3.26v4a2.5,2.5,0,0,0,5,0v-4a8.134,8.134,0,0,0-.071-1.03,3.454,3.454,0,0,1,3.14-2.036H56.109A3.473,3.473,0,0,1,59.1,87.137a2.392,2.392,0,0,0,.156.214,8.137,8.137,0,0,0-.085,1.121v4a2.5,2.5,0,0,0,5,0v-4a3.264,3.264,0,0,1,3.26-3.26H79.24a3.264,3.264,0,0,1,3.26,3.26v4a2.5,2.5,0,0,0,5,0v-4A8.269,8.269,0,0,0,79.24,80.212Z"/><path d="M23.237,49.506a.549.549,0,0,1,.323.464v7.181a2.5,2.5,0,0,0,4.293,1.742l8.023-8.252H43.52l4.295,7.724a2.5,2.5,0,0,0,4.37,0l4.295-7.724h7.644l8.023,8.252a2.5,2.5,0,0,0,4.293-1.742V49.97a.548.548,0,0,1,.324-.464,10.475,10.475,0,0,0,5.746-9.365V15.531a10.512,10.512,0,0,0-10.5-10.5H27.99a10.512,10.512,0,0,0-10.5,10.5v24.61A10.474,10.474,0,0,0,23.237,49.506ZM22.49,15.531a5.506,5.506,0,0,1,5.5-5.5H72.01a5.506,5.506,0,0,1,5.5,5.5v24.61a5.5,5.5,0,0,1-3.017,4.911A5.513,5.513,0,0,0,71.44,49.97v1.023L66.973,46.4a2.5,2.5,0,0,0-1.793-.757H55.01a2.5,2.5,0,0,0-2.185,1.285L50,52.006l-2.825-5.08a2.5,2.5,0,0,0-2.185-1.285H34.82a2.5,2.5,0,0,0-1.793.757L28.56,50.993V49.97a5.514,5.514,0,0,0-3.052-4.918,5.5,5.5,0,0,1-3.018-4.911Z"/><path d="M29.672,30.45h1.9a9.548,9.548,0,0,0,.96,2.32l-1.345,1.345a2.5,2.5,0,1,0,3.535,3.536l1.343-1.344a9.605,9.605,0,0,0,2.319.963v1.9a2.5,2.5,0,0,0,5,0v-1.9a9.6,9.6,0,0,0,2.319-.959l1.345,1.345a2.5,2.5,0,1,0,3.536-3.535L49.239,32.78a9.565,9.565,0,0,0,.963-2.319h1.9a2.5,2.5,0,0,0,0-5h-1.9a9.6,9.6,0,0,0-.96-2.319L50.59,21.8a2.5,2.5,0,0,0-3.535-3.537L45.711,19.6a9.579,9.579,0,0,0-2.318-.962v-1.9a2.5,2.5,0,1,0-5,0v1.9a9.6,9.6,0,0,0-2.319.96l-1.345-1.345a2.5,2.5,0,0,0-3.536,3.535l1.344,1.343a9.558,9.558,0,0,0-.963,2.318h-1.9a2.5,2.5,0,0,0,0,5ZM40.888,23.3a4.655,4.655,0,1,1-4.656,4.655A4.66,4.66,0,0,1,40.888,23.3Z"/><path d="M64.97,41.041a7.859,7.859,0,1,0-7.859-7.859A7.868,7.868,0,0,0,64.97,41.041Zm0-10.717a2.859,2.859,0,1,1-2.859,2.858A2.861,2.861,0,0,1,64.97,30.324Z"/></g><text x="0" y="115" fill="#000000" font-size="5px" font-weight="bold" font-family="'Helvetica Neue', Helvetica, Arial-Unicode, Arial, Sans-serif">Created by ARIS ARISA</text><text x="0" y="120" fill="#000000" font-size="5px" font-weight="bold" font-family="'Helvetica Neue', Helvetica, Arial-Unicode, Arial, Sans-serif">from the Noun Project</text></svg>